<?xml version="1.0" encoding="UTF-8" standalone="no"?>
<!DOCTYPE svg PUBLIC "-//W3C//DTD SVG 1.1//EN" "http://www.w3.org/Graphics/SVG/1.1/DTD/svg11.dtd">
<svg version="1.1" xmlns="http://www.w3.org/2000/svg" xmlns:xlink="http://www.w3.org/1999/xlink" preserveAspectRatio="xMidYMid meet" viewBox="-1.3708210559609355 3.4253095472402535 252.7416421119219 96.57469045275974" width="256" height="97.82"><defs><path d="M35.55 26.33C54.13 14.37 65.73 6.9 70.38 3.91C72.37 2.62 75 4.06 75 6.43C75 12.47 75 27.57 75 51.73C75 75.85 75 90.92 75 96.95C75 99.36 72.33 100.81 70.31 99.51C65.68 96.53 54.09 89.07 35.55 77.13C16.59 64.92 4.74 57.29 0 54.24C-1.83 53.06 -1.83 50.4 0 49.23C4.74 46.17 16.59 38.54 35.55 26.33Z" id="a2aGvPORhd"></path><path d="M160 50C160 69.32 144.32 85 125 85C105.68 85 90 69.32 90 50C90 30.68 105.68 15 125 15C144.32 15 160 30.68 160 50Z" id="c1Tut12qc6"></path><path d="M214.45 26.33C195.87 14.37 184.27 6.9 179.62 3.91C177.63 2.62 175 4.06 175 6.43C175 12.47 175 27.57 175 51.73C175 75.85 175 90.92 175 96.95C175 99.36 177.67 100.81 179.69 99.51C184.32 96.53 195.91 89.07 214.45 77.13C233.41 64.92 245.26 57.29 250 54.24C251.83 53.06 251.83 50.4 250 49.23C245.26 46.17 233.41 38.54 214.45 26.33Z" id="a2ZriSWFaw"></path></defs><g><g><g><use xlink:href="#a2aGvPORhd" opacity="1" fill="#000000" fill-opacity="1"></use><g><use xlink:href="#a2aGvPORhd" opacity="1" fill-opacity="0" stroke="#fb245e" stroke-width="0" stroke-opacity="1"></use></g></g><g><use xlink:href="#c1Tut12qc6" opacity="1" fill="#000000" fill-opacity="1"></use></g><g><use xlink:href="#a2ZriSWFaw" opacity="1" fill="#000000" fill-opacity="1"></use><g><use xlink:href="#a2ZriSWFaw" opacity="1" fill-opacity="0" stroke="#fb245e" stroke-width="0" stroke-opacity="1"></use></g></g></g></g></svg>