<?xml version="1.0" encoding="iso-8859-1"?>
<!-- Generator: Adobe Illustrator 19.0.0, SVG Export Plug-In . SVG Version: 6.00 Build 0)  -->
<svg version="1.1" id="Capa_1" xmlns="http://www.w3.org/2000/svg" xmlns:xlink="http://www.w3.org/1999/xlink" x="0px" y="0px"
	 viewBox="0 0 511.997 511.997" style="enable-background:new 0 0 511.997 511.997;" xml:space="preserve">
<g>
	<g>
		<path stroke-width="5" stroke="#959595" fill="#959595" d="M444.92,365.778L231.587,152.445c-3.051-3.051-7.616-3.947-11.627-2.304c-3.989,1.643-6.592,5.547-6.592,9.856v295.381
			c0,4.075,2.325,7.808,5.995,9.579c3.691,1.813,8.043,1.344,11.243-1.173l54.144-42.347l47.275,85.077
			c1.941,3.499,5.589,5.483,9.344,5.483c1.621,0,3.243-0.363,4.779-1.131l64-32c2.603-1.301,4.565-3.605,5.419-6.379
			c0.853-2.795,0.533-5.803-0.875-8.341l-44.523-80.149h67.2c4.309,0,8.213-2.603,9.856-6.592
			C448.888,373.416,447.971,368.829,444.92,365.778z M352.035,362.664c-3.776,0-7.275,1.984-9.195,5.291
			c-1.92,3.243-1.963,7.275-0.128,10.581l47.915,86.251l-44.885,22.464l-48.384-87.083c-1.515-2.731-4.139-4.672-7.211-5.291
			c-0.704-0.149-1.408-0.213-2.112-0.213c-2.368,0-4.672,0.768-6.571,2.261l-46.763,36.565V185.746l176.917,176.917H352.035z"/>
	</g>
</g>
<g>
	<g>
		<path stroke-width="5" stroke="#959595" fill="#959595" d="M373.453,102.781c-15.296-39.915-45.184-71.488-84.224-88.896c-80.533-35.947-175.339,0.32-211.307,80.896
			c-17.408,39.019-18.581,82.496-3.328,122.432c15.296,39.915,45.184,71.488,84.224,88.896c1.408,0.619,2.88,0.917,4.331,0.917
			c4.096,0,7.979-2.368,9.749-6.336c2.411-5.376-0.021-11.691-5.397-14.08C97.699,255.442,66.232,173.288,97.4,103.464
			C128.589,33.661,210.765,2.258,280.547,33.362c69.803,31.168,101.269,113.323,70.101,183.147
			c-2.411,5.376,0.021,11.691,5.397,14.08c5.376,2.432,11.669-0.043,14.08-5.397C387.555,186.173,388.728,142.696,373.453,102.781z"
			/>
	</g>
</g>
<g>
	<g>
		<path stroke-width="5" stroke="#959595" fill="#959595" d="M314.211,127.058c-8.811-24.085-26.453-43.307-49.707-54.123c-23.232-10.795-49.323-11.904-73.408-3.115
			c-24.085,8.811-43.307,26.453-54.123,49.707c-10.795,23.253-11.904,49.323-3.115,73.408c8.811,24.085,26.453,43.307,49.707,54.123
			c1.451,0.661,2.987,0.981,4.48,0.981c4.011,0,7.872-2.283,9.685-6.165c2.475-5.355,0.149-11.691-5.184-14.187
			c-18.091-8.405-31.808-23.36-38.656-42.091c-6.848-18.731-5.973-38.997,2.453-57.088c8.405-18.091,23.339-31.808,42.069-38.656
			c18.752-6.848,38.997-5.995,57.088,2.432c18.091,8.405,31.808,23.36,38.656,42.091c6.848,18.731,5.995,38.997-2.432,57.088
			c-2.475,5.355-0.149,11.691,5.184,14.187c5.397,2.453,11.712,0.149,14.187-5.184C321.891,177.213,323,151.144,314.211,127.058z"/>
	</g>
</g>
</svg>
