<?xml version="1.0" encoding="iso-8859-1"?>
<!-- Generator: Adobe Illustrator 17.1.0, SVG Export Plug-In . SVG Version: 6.00 Build 0)  -->
<!DOCTYPE svg PUBLIC "-//W3C//DTD SVG 1.1//EN" "http://www.w3.org/Graphics/SVG/1.1/DTD/svg11.dtd">
<svg version="1.1" id="Capa_1" xmlns="http://www.w3.org/2000/svg" xmlns:xlink="http://www.w3.org/1999/xlink" x="0px" y="0px"
	 viewBox="0 0 442.219 442.219" style="enable-background:new 0 0 442.219 442.219;" xml:space="preserve">
<path stroke-width="1" stroke="#959595" fill="#959595" id="XMLID_32_" d="M339.734,133.344c22.749,0,41.255-18.507,41.255-41.255s-18.507-41.255-41.255-41.255
	c-22.748,0-41.254,18.507-41.254,41.255S316.987,133.344,339.734,133.344z M339.734,68.834c12.823,0,23.255,10.432,23.255,23.255
	s-10.432,23.255-23.255,23.255c-12.822,0-23.254-10.432-23.254-23.255S326.912,68.834,339.734,68.834z M104.157,308.875
	c-22.748,0-41.254,18.507-41.254,41.255s18.507,41.255,41.254,41.255c22.749,0,41.255-18.507,41.255-41.255
	S126.905,308.875,104.157,308.875z M104.157,373.385c-12.822,0-23.254-10.432-23.254-23.255s10.432-23.255,23.254-23.255
	c12.823,0,23.255,10.432,23.255,23.255S116.98,373.385,104.157,373.385z M418.337,258.288
	c-11.108-27.495-38.254-46.179-68.207-46.179H247.18c-3.739-10.801-14.014-18.578-26.07-18.578s-22.331,7.777-26.07,18.578H92.089
	c-21.525,0-41.133-12.788-50.211-31.936c7.956-4.844,13.279-13.599,13.279-23.574s-5.323-18.731-13.279-23.575
	c9.078-19.147,28.687-31.936,50.211-31.936h174.684c4.45,36.306,35.474,64.511,72.961,64.511c40.534,0,73.51-32.977,73.51-73.511
	c0-40.533-32.977-73.51-73.51-73.51c-37.488,0-68.511,28.205-72.961,64.51H92.089c-29.952,0-57.099,18.684-68.208,46.179
	C10.417,131.08,0,142.646,0,156.6s10.417,25.519,23.881,27.331c11.108,27.495,38.255,46.179,68.208,46.179H195.04
	c3.739,10.801,14.014,18.578,26.07,18.578s22.331-7.777,26.07-18.578h102.95c21.525,0,41.133,12.788,50.21,31.936
	c-7.956,4.844-13.279,13.599-13.279,23.574s5.323,18.731,13.279,23.575c-9.077,19.147-28.686,31.936-50.21,31.936H177.12
	c-4.451-36.306-35.475-64.511-72.963-64.511c-40.533,0-73.509,32.977-73.509,73.511c0,40.533,32.976,73.51,73.509,73.51
	c37.489,0,68.513-28.205,72.963-64.51h173.01c29.953,0,57.099-18.684,68.207-46.179c13.465-1.813,23.882-13.379,23.882-27.332
	S431.802,260.101,418.337,258.288z M339.734,36.579c30.608,0,55.51,24.901,55.51,55.51s-24.902,55.511-55.51,55.511
	c-30.608,0-55.509-24.902-55.509-55.511S309.126,36.579,339.734,36.579z M29.085,166.06c-0.074,0.01-0.147,0.021-0.222,0.032
	c-0.42,0.057-0.849,0.086-1.285,0.086c-5.282,0-9.579-4.297-9.579-9.578c0-5.282,4.297-9.579,9.579-9.579
	c0.434,0,0.861,0.029,1.28,0.085c0.077,0.013,0.153,0.023,0.23,0.034c4.566,0.727,8.067,4.692,8.067,9.46
	C37.156,161.368,33.653,165.335,29.085,166.06z M221.11,230.688c-5.281,0-9.578-4.297-9.578-9.578s4.296-9.578,9.578-9.578
	s9.578,4.297,9.578,9.578S226.391,230.688,221.11,230.688z M104.157,405.64c-30.608,0-55.509-24.901-55.509-55.51
	s24.901-55.511,55.509-55.511c30.609,0,55.511,24.902,55.511,55.511S134.766,405.64,104.157,405.64z M414.639,295.198
	c-0.433,0-0.86-0.029-1.278-0.085c-0.078-0.013-0.156-0.024-0.234-0.034c-4.565-0.728-8.065-4.693-8.065-9.46
	c0-4.769,3.502-8.734,8.07-9.46c0.075-0.01,0.149-0.021,0.224-0.032c0.42-0.057,0.849-0.086,1.284-0.086
	c5.282,0,9.58,4.297,9.58,9.578C424.219,290.901,419.921,295.198,414.639,295.198z"/>
</svg>
